<svg width="512" height="512" viewBox="0 0 512 512" fill="none" xmlns="http://www.w3.org/2000/svg">
<g clip-path="url(#clip0_2887_170)">
<path d="M463.586 280.709C463.586 408.449 360.023 511.999 232.289 511.999C200.953 511.999 171.082 505.769 143.836 494.476C69.367 463.628 14.516 394.999 3.17604 312.499C1.72071 301.965 0.993652 291.343 1.00004 280.709C1.00004 152.965 104.55 49.4141 232.29 49.4141C360.023 49.4141 463.586 152.964 463.586 280.711V280.709Z" fill="#00539E"/>
<path d="M232.29 49.4141C220.059 49.4141 208.055 50.3711 196.34 52.1991C307.008 69.4701 391.69 165.191 391.69 280.711C391.69 396.215 307.015 491.934 196.354 509.211C208.24 511.068 220.253 512 232.284 512C360.022 512 463.584 408.45 463.584 280.71C463.584 152.965 360.022 49.4141 232.288 49.4141H232.29Z" fill="#00539E"/>
<path d="M492.459 263.612L360.387 351.069C350.983 357.304 339.579 359.776 328.437 357.995C317.27 356.218 305.844 358.655 296.41 364.901L278.734 376.616L179.75 230.706L204.035 125.792C205.908 117.695 206.854 109.412 206.855 101.101C206.855 79.7693 200.617 58.7143 188.652 40.6404C185.814 36.3603 184.302 31.3379 184.305 26.2024C184.305 17.7184 188.422 9.39435 196.031 4.35435C201.006 1.05739 206.959 -0.439521 212.901 0.111972C218.844 0.663465 224.42 3.23021 228.703 7.38635L244.437 22.6244C262.435 40.0789 276.302 61.3373 285.023 84.8434L293.555 107.811L381.41 49.7654C395.441 40.4754 414.422 44.5384 423.383 58.9094C432.023 72.7534 427.586 91.0463 413.973 100.058C413.809 100.167 413.797 100.343 413.852 100.476C413.93 100.62 414.094 100.718 414.277 100.64C417.694 99.3269 421.323 98.654 424.984 98.6553C430.734 98.6553 436.434 100.311 441.309 103.464C444.767 105.702 447.723 108.632 449.992 112.069C454.359 118.646 455.942 126.684 454.395 134.425C452.066 146.19 443.515 152.253 441.835 153.394C441.697 153.492 441.602 153.64 441.572 153.806C441.541 153.972 441.577 154.144 441.672 154.284C441.672 154.292 441.684 154.304 441.692 154.304C441.879 154.569 442.262 154.644 442.535 154.472C444.915 153.897 447.356 153.608 449.805 153.612C455.754 153.612 461.672 155.304 466.703 158.511C470.105 160.686 473.113 163.561 475.441 167.085C484.574 180.874 480.801 199.46 466.996 208.597C466.656 208.827 466.316 209.057 465.976 209.277C465.781 209.433 465.723 209.683 465.824 209.858C465.844 209.901 465.891 209.948 465.934 209.968C466.086 210.088 466.328 210.101 466.527 209.948C475.102 207.026 484.434 208.354 491.941 213.218C495.398 215.436 498.465 218.425 500.891 222.088C510.027 235.89 506.25 254.476 492.461 263.612H492.459Z" fill="#FDD7BD"/>
<path d="M279.996 404.308L224.277 441.206L143.836 494.476C69.3668 463.624 14.5158 395.006 3.17578 312.499L96.5268 250.679L153.355 213.042C159.898 208.706 168.727 210.507 173.063 217.062L284.016 384.589C288.352 391.144 286.551 399.956 279.996 404.308Z" fill="#87DBFF"/>
<path d="M279.996 404.308L224.277 441.206L96.5273 250.679L153.355 213.042C159.898 208.706 168.727 210.507 173.063 217.062L284.016 384.585C288.352 391.144 286.551 399.956 279.996 404.308Z" fill="#6FC7FF"/>
<path d="M441.309 103.46L397.359 126.98C391.125 130.309 383.395 128.57 379.203 122.895L413.852 100.477C413.93 100.621 414.094 100.719 414.277 100.641C417.694 99.3278 421.324 98.6549 424.984 98.6563C430.738 98.6563 436.434 100.311 441.309 103.46ZM466.703 158.512L423.711 181.5C417.477 184.84 409.746 183.105 405.551 177.43L440.199 155.008L441.695 154.305C441.883 154.57 442.265 154.645 442.539 154.473C444.92 153.898 447.36 153.609 449.809 153.613C455.758 153.613 461.676 155.305 466.703 158.512ZM491.945 213.219L454.078 233.477C451.064 235.086 447.572 235.559 444.239 234.809C440.905 234.059 437.952 232.136 435.918 229.391L465.934 209.969C466.021 210.033 466.127 210.065 466.235 210.061C466.342 210.056 466.446 210.016 466.527 209.945C475.102 207.027 484.434 208.355 491.945 213.219Z" fill="#FAC5AA"/>
</g>
<defs>
<clipPath id="clip0_2887_170">
<rect width="512" height="512" fill="white"/>
</clipPath>
</defs>
</svg>
